<svg width="16" height="17" viewBox="0 0 16 17" fill="none" xmlns="http://www.w3.org/2000/svg">
<path d="M14.25 1.83459H12.375V1.20959C12.375 1.04383 12.3092 0.884863 12.1919 0.767653C12.0747 0.650443 11.9158 0.584595 11.75 0.584595C11.5842 0.584595 11.4253 0.650443 11.3081 0.767653C11.1908 0.884863 11.125 1.04383 11.125 1.20959V1.83459H4.875V1.20959C4.875 1.04383 4.80915 0.884863 4.69194 0.767653C4.57473 0.650443 4.41576 0.584595 4.25 0.584595C4.08424 0.584595 3.92527 0.650443 3.80806 0.767653C3.69085 0.884863 3.625 1.04383 3.625 1.20959V1.83459H1.75C1.41848 1.83459 1.10054 1.96629 0.866116 2.20071C0.631696 2.43513 0.5 2.75307 0.5 3.08459V15.5846C0.5 15.9161 0.631696 16.2341 0.866116 16.4685C1.10054 16.7029 1.41848 16.8346 1.75 16.8346H14.25C14.5815 16.8346 14.8995 16.7029 15.1339 16.4685C15.3683 16.2341 15.5 15.9161 15.5 15.5846V3.08459C15.5 2.75307 15.3683 2.43513 15.1339 2.20071C14.8995 1.96629 14.5815 1.83459 14.25 1.83459ZM3.625 3.08459V3.70959C3.625 3.87536 3.69085 4.03433 3.80806 4.15154C3.92527 4.26875 4.08424 4.33459 4.25 4.33459C4.41576 4.33459 4.57473 4.26875 4.69194 4.15154C4.80915 4.03433 4.875 3.87536 4.875 3.70959V3.08459H11.125V3.70959C11.125 3.87536 11.1908 4.03433 11.3081 4.15154C11.4253 4.26875 11.5842 4.33459 11.75 4.33459C11.9158 4.33459 12.0747 4.26875 12.1919 4.15154C12.3092 4.03433 12.375 3.87536 12.375 3.70959V3.08459H14.25V5.58459H1.75V3.08459H3.625ZM14.25 15.5846H1.75V6.83459H14.25V15.5846Z" fill="#8B8D9B"/>
</svg>
