<svg width="9" height="10" viewBox="0 0 9 10" fill="none" xmlns="http://www.w3.org/2000/svg">
<path d="M1.90552 0.772112L7.81105 4.27166C7.94605 4.35152 8.05677 4.4598 8.13335 4.58687C8.20993 4.71393 8.25 4.85585 8.25 5C8.25 5.14415 8.20993 5.28607 8.13335 5.41314C8.05677 5.5402 7.94605 5.64848 7.81105 5.72834L1.90552 9.22789C1.75725 9.31582 1.58491 9.36631 1.40688 9.37398C1.22886 9.38164 1.05183 9.3462 0.894701 9.27142C0.737568 9.19664 0.606228 9.08534 0.514698 8.9494C0.423168 8.81346 0.374884 8.65798 0.375 8.49955V1.50046C0.374884 1.34203 0.423168 1.18654 0.514698 1.0506C0.606228 0.914656 0.737568 0.803357 0.894701 0.728581C1.05183 0.653805 1.22886 0.618358 1.40688 0.626025C1.58491 0.633692 1.75725 0.684184 1.90552 0.772112Z" fill="url(#paint0_linear_642_1059)"/>
<defs>
<linearGradient id="paint0_linear_642_1059" x1="0.375" y1="5.08469" x2="8.49254" y2="5.22992" gradientUnits="userSpaceOnUse">
<stop stop-color="#9F55FF"/>
<stop offset="1" stop-color="#FF46B9"/>
</linearGradient>
</defs>
</svg>
